<?xml version="1.0" encoding="utf-8"?>
<!-- Generator: Adobe Illustrator 25.4.1, SVG Export Plug-In . SVG Version: 6.00 Build 0)  -->
<svg version="1.1" id="Слой_1" xmlns="http://www.w3.org/2000/svg" xmlns:xlink="http://www.w3.org/1999/xlink" x="0px" y="0px"
	 viewBox="0 0 32 32" style="enable-background:new 0 0 32 32;" xml:space="preserve">
<style type="text/css">
	.st0{fill:#F7931E;}
	.st1{fill:#009245;}
	.st2{fill:#ED1C24;}
	.st3{fill:#0000FF;}
	.st4{fill:none;}
	.st5{fill:#F2F2F2;}
	.st6{font-family:'MyriadPro-Regular';}
	.st7{font-size:9px;}
</style>
<path class="st0" d="M14.22,23.91c-0.12,0.12-0.32,0.12-0.44,0l-5.4-5.34l-5.04-4.98C3.13,13.37,3.27,13,3.56,13H14h10.44
	c0.29,0,0.43,0.37,0.22,0.58l-5.04,4.98L14.22,23.91z"/>
<path class="st0" d="M25.53,13.2L14.47,24.25c-0.26,0.26-0.69,0.26-0.95,0L2.47,13.2C2.34,13.07,2.17,13,1.99,13H1.58
	c-0.4,0.02-0.59,0.22-0.58,0.6v16.73C1,30.7,1.3,31,1.67,31h28.66C30.7,31,31,30.7,31,30.33V13.67C31,13.3,30.7,13,30.33,13h-4.32
	C25.83,13,25.66,13.07,25.53,13.2z"/>
<path class="st1" d="M22.93,7.76l-3.51,3.51C18.15,12.53,16,11.64,16,9.86V2c0-1.1-0.9-2-2-2h0c-1.1,0-2,0.9-2,2v8.08
	c0,1.78-2.15,2.67-3.41,1.41l-0.36-0.36c-0.78-0.78-2.05-0.78-2.83,0l0,0c-0.78,0.78-0.78,2.05,0,2.83l8.49,8.49l0,0l0,0
	l11.87-11.87c0.78-0.78,0.78-2.05,0-2.83l0,0C24.98,6.98,23.71,6.98,22.93,7.76z"/>
<g>
	<polygon class="st2" points="6.27,17 1,17 1,18 7.27,18 	"/>
	<polygon class="st2" points="20.73,18 31,18 31,17 21.73,17 	"/>
</g>
<g>
	<polygon class="st3" points="7.27,18 1,18 1,19 8.27,19 	"/>
	<polygon class="st3" points="19.73,19 31,19 31,18 20.73,18 	"/>
</g>
<rect x="18.26" y="23.44" class="st4" width="14.01" height="6.72"/>
<text transform="matrix(1 0 0 1 18.2642 29.833)" class="st5 st6 st7">ZIP</text>
</svg>
