<?xml version="1.0" encoding="utf-8"?>
<!-- Generator: Adobe Illustrator 25.4.1, SVG Export Plug-In . SVG Version: 6.00 Build 0)  -->
<svg version="1.1" xmlns="http://www.w3.org/2000/svg" xmlns:xlink="http://www.w3.org/1999/xlink" x="0px" y="0px"
	 viewBox="0 0 16 16" style="enable-background:new 0 0 16 16;" xml:space="preserve">
<style type="text/css">
	.st0{fill:#8CC63F;}
	.st1{fill:#F15A24;}
	.st2{fill:#A67C52;}
	.st3{fill:#F7931E;}
</style>
<g id="Слой_3">
	<path class="st0" d="M9.76,15H6.24C2.8,15,0,12.2,0,8.76l0-1.51C0,3.8,2.8,1,6.24,1h3.51C13.2,1,16,3.8,16,7.24v1.51
		C16,12.2,13.2,15,9.76,15z"/>
</g>
<g id="Слой_2">
	<g>
		<g>
			<polygon class="st1" points="1.28,10.39 2.73,5.17 6.81,8.56 5.35,13.78 			"/>
			<path d="M2.8,5.39L6.66,8.6l-1.39,4.96l-3.86-3.21L2.8,5.39 M2.67,4.95l-1.53,5.49L5.41,14l1.53-5.49L2.67,4.95L2.67,4.95z"/>
		</g>
		<g>
			<polygon class="st2" points="7.05,8.62 12.28,7.84 10.82,13.06 5.59,13.85 			"/>
			<path d="M12.11,7.99l-1.39,4.96L5.76,13.7l1.39-4.96L12.11,7.99 M12.45,7.68L6.95,8.51L5.41,14l5.51-0.83L12.45,7.68L12.45,7.68z
				"/>
		</g>
		<g>
			<polygon class="st3" points="0.27,3.79 8.76,2.13 15.25,8.09 6.67,9.58 			"/>
			<path d="M8.72,2.27l6.26,5.74L6.7,9.44L0.54,3.86L8.72,2.27 M8.8,2L0,3.72l6.63,6l8.89-1.54L8.8,2L8.8,2z"/>
		</g>
		<polygon points="15.05,10.25 15.19,8.23 14.52,8.23 14.66,10.25 13.71,11.59 14.85,13.22 16,11.59 		"/>
		<path d="M10.63,8.14l0.44-0.32l-2.29-3.2l1.03-0.74l-0.28-0.4L6.76,5.46l0.27,0.37l0.68-0.49l0.77,1.07
			C8.41,6.54,8.25,6.73,7.96,6.93C7.18,7.49,6.28,7.32,5.62,6.41c-0.65-0.9-0.5-1.83,0.32-2.42C6.28,3.75,6.56,3.66,6.8,3.61
			L6.63,3.16c-0.2,0.03-0.57,0.16-0.96,0.44C4.55,4.4,4.42,5.68,5.18,6.76c0.4,0.56,0.92,0.91,1.43,1c0.57,0.1,1.09-0.06,1.6-0.43
			C8.66,7.01,8.96,6.61,9.1,6.4L8.14,5.05l0.2-0.14L10.63,8.14z"/>
	</g>
</g>
</svg>
