<?xml version="1.0" encoding="utf-8"?>
<!-- Generator: Adobe Illustrator 25.4.1, SVG Export Plug-In . SVG Version: 6.00 Build 0)  -->
<svg version="1.1" id="Слой_1" xmlns="http://www.w3.org/2000/svg" xmlns:xlink="http://www.w3.org/1999/xlink" x="0px" y="0px"
	 viewBox="0 0 32 32" style="enable-background:new 0 0 32 32;" xml:space="preserve">
<style type="text/css">
	.st0{fill:none;}
	.st1{fill:#5E5E77;}
	.st2{fill:#0AE075;stroke:#006047;stroke-linecap:round;stroke-linejoin:bevel;stroke-miterlimit:10;}
</style>
<rect x="18.3" y="23.4" class="st0" width="14" height="6.7"/>
<path class="st1" d="M14.6,1.5C6.6,1.5,0.2,8,0.2,16s6.5,14.5,14.5,14.5c1.4,0,2.7-0.2,3.9-0.5c3.2-0.9,5.9-2.9,7.8-5.5
	c1.7-2.4,2.7-5.3,2.7-8.5C29.1,8,22.6,1.5,14.6,1.5z M14.6,3.9c2.3,0,4.2,1.9,4.2,4.2s-1.9,4.2-4.2,4.2s-4.2-1.9-4.2-4.2
	S12.3,3.9,14.6,3.9z M16.1,16c0,0.8-0.6,1.4-1.5,1.4c-0.8,0-1.4-0.6-1.4-1.4c0-0.8,0.6-1.5,1.4-1.5S16.1,15.2,16.1,16z M6.6,20.1
	c-2.3,0-4.2-1.9-4.2-4.2s1.9-4.2,4.2-4.2s4.2,1.9,4.2,4.2S8.9,20.1,6.6,20.1z M14.6,28.1c-2.4,0-4.2-1.9-4.2-4.2s1.9-4.2,4.2-4.2
	s4.2,2.1,4.2,4.2S17,28.1,14.6,28.1z M22.6,20.2c-2.3,0-4.2-1.9-4.2-4.2s1.9-4.2,4.2-4.2s4.2,1.9,4.2,4.2S24.9,20.2,22.6,20.2z"/>
<path class="st1" d="M12.2,29.1l2.5,1.4c0.6,0.1,8.4-0.8,11.1-2.5s4.8-1,5.3,0.6c0.7-0.7,0.9-0.9,0.9-0.9s-2.4-3.2-6.9-0.6
	s-10.5,2.2-10.5,2.2L12.2,29.1z"/>
<polygon class="st2" points="19.7,16 15.9,18.7 12.2,21.4 12.2,16 12.2,10.7 15.9,13.3 "/>
</svg>
